<?xml version="1.0" encoding="utf-8"?>
<!-- Generator: Adobe Illustrator 22.1.0, SVG Export Plug-In . SVG Version: 6.00 Build 0)  -->
<svg version="1.1" id="Layer_1" xmlns="http://www.w3.org/2000/svg" xmlns:xlink="http://www.w3.org/1999/xlink" x="0px" y="0px"
	 viewBox="0 0 318.6 107" style="enable-background:new 0 0 318.6 107;" xml:space="preserve">
<style type="text/css">
	.st0{display:none;fill:#E47676;}
	.st1{fill:#FFFFFF;}
</style>
<rect x="-90.7" y="-196.5" class="st0" width="500" height="500"/>
<g id="Layer_2_1_">
	<g>
		<path class="st1" d="M94.2,41.5c1.9,1.1,3.4,2.8,4.5,5s1.6,4.7,1.6,7.6c0,2.9-0.5,5.4-1.6,7.6c-1.1,2.1-2.6,3.8-4.5,4.9
			s-4.1,1.7-6.6,1.7c-2.7,0-5-0.7-6.9-2c-1.9-1.4-3.2-3.2-3.9-5.4V68h-4.6V35.1c0-2.5,2.1-4.6,4.6-4.6l0,0v16.7c0.7-2.2,2-4,3.9-5.4
			s4.2-2,6.9-2C90.1,39.8,92.3,40.4,94.2,41.5z M81.5,45.2c-1.5,0.8-2.6,2-3.4,3.6s-1.2,3.3-1.2,5.4c0,2,0.4,3.8,1.2,5.3
			c0.8,1.5,1.9,2.7,3.4,3.6c1.4,0.8,3.1,1.3,4.9,1.3c2.9,0,5.2-0.9,6.9-2.7c1.7-1.8,2.6-4.3,2.6-7.5s-0.9-5.7-2.6-7.5
			s-4-2.7-6.9-2.7C84.5,43.9,82.9,44.3,81.5,45.2z"/>
		<path class="st1" d="M119.7,63.9v4h-3.4c-2.8,0-4.9-0.7-6.3-2s-2.1-3.6-2.1-6.8v-15h-4.1v-4h4.1v-2.3c0-2.6,2.1-4.7,4.7-4.7l0,0
			V40h7.2v4h-7.2v15.1c0,1.8,0.3,3,1,3.7s1.8,1,3.4,1L119.7,63.9L119.7,63.9z"/>
		<path class="st1" d="M147.7,42.8c2,2.1,3,5.1,3,9v16.1h-4.6V52.2c0-2.8-0.7-4.9-2.1-6.4c-1.4-1.5-3.3-2.2-5.8-2.2
			s-4.6,0.8-6.1,2.5c-1.5,1.6-2.3,4-2.3,7.2V68h-4.6V44.8c0-2.5,2.1-4.6,4.6-4.6l0,0v6.6c0.7-2.3,2-4,3.8-5.2s3.9-1.8,6.2-1.8
			C143.1,39.7,145.7,40.8,147.7,42.8z"/>
		<path class="st1" d="M199.7,42.8c2,2.1,3,5.1,3,9v16.1h-4.6V52.2c0-2.7-0.7-4.8-2-6.3c-1.3-1.4-3.2-2.2-5.5-2.2
			c-2.4,0-4.4,0.8-5.8,2.4c-1.5,1.6-2.2,4-2.2,7.1v14.7H178V52.2c0-2.7-0.7-4.8-2-6.3c-1.3-1.4-3.2-2.2-5.5-2.2
			c-2.5,0-4.4,0.8-5.9,2.4c-1.5,1.6-2.2,4-2.2,7.1v14.7h-4.6V44.8c0-2.5,2.1-4.6,4.6-4.6l0,0v6.3c0.7-2.2,1.9-3.9,3.6-5
			c1.7-1.2,3.7-1.7,6-1.7c2.4,0,4.4,0.6,6.1,1.8c1.7,1.2,3,3,3.7,5.3c0.8-2.3,2.1-4,3.9-5.2c1.8-1.2,3.9-1.8,6.2-1.8
			C195.2,39.7,197.8,40.8,199.7,42.8z"/>
		<path class="st1" d="M225.1,67.9l-10.6-12.5v12.5h-4.6V35.1c0-2.5,2.1-4.6,4.6-4.6l0,0v21.7L225,40.1h5.6L218.1,54l12.7,14
			L225.1,67.9L225.1,67.9z"/>
		<path class="st1" d="M243.5,41.3c1.8-1.1,3.8-1.6,6.3-1.6v5h-1.4c-2.6,0-4.7,0.7-6.4,2s-2.5,3.5-2.5,6.6v14.6h-4.6V44.8
			c0-2.5,2.1-4.6,4.6-4.6l0,0v5.6C240.4,43.9,241.7,42.4,243.5,41.3z"/>
	</g>
	<g>
		<circle class="st1" cx="252.1" cy="65.5" r="2.4"/>
	</g>
	<g>
		<path class="st1" d="M308.4,107H11.3C5,107,0,102,0,95.7V11.3C0,5,5,0,11.3,0h297.1c6.2,0,11.3,5,11.3,11.3v84.5
			C319.6,102,314.6,107,308.4,107z M11.3,5.2c-3.3,0-6.1,2.7-6.1,6.1v84.5c0,3.3,2.7,6.1,6.1,6.1h297.1c3.3,0,6.1-2.7,6.1-6.1V11.3
			c0-3.3-2.7-6.1-6.1-6.1C308.4,5.2,11.3,5.2,11.3,5.2z"/>
	</g>
</g>
</svg>
