<?xml version="1.0" encoding="utf-8"?>
<!-- Generator: Adobe Illustrator 22.1.0, SVG Export Plug-In . SVG Version: 6.00 Build 0)  -->
<svg version="1.1" id="Layer_1" xmlns="http://www.w3.org/2000/svg" xmlns:xlink="http://www.w3.org/1999/xlink" x="0px" y="0px"
	 viewBox="0 0 169.9 77.5" style="enable-background:new 0 0 169.9 77.5;" xml:space="preserve">
<style type="text/css">
	.st0{fill:#F1F5F8;}
	.st1{fill:#E8ECEF;}
</style>
<rect class="st0" width="169.9" height="77.5"/>
<g>
	<path class="st1" d="M74,33.8H16c-3.3,0-6-2.7-6-6V16.2c0-3.3,2.7-6,6-6h58c3.3,0,6,2.7,6,6v11.7C80,31.1,77.3,33.8,74,33.8z
		 M16,12.2c-2.2,0-4,1.8-4,4v11.7c0,2.2,1.8,4,4,4h58c2.2,0,4-1.8,4-4V16.2c0-2.2-1.8-4-4-4H16z"/>
</g>
<g>
	<path class="st1" d="M61.1,23H28.9c-0.6,0-1-0.4-1-1s0.4-1,1-1h32.3c0.6,0,1,0.4,1,1S61.7,23,61.1,23z"/>
</g>
<g>
	<path class="st1" d="M159.9,33.8h-70V10.2h70V33.8z M91.9,31.8h66V12.2h-66V31.8z"/>
</g>
<g>
	<rect x="108.7" y="19" class="st1" width="32.3" height="2"/>
</g>
<g>
	<rect x="115.3" y="23" class="st1" width="19.1" height="2"/>
</g>
<g>
	<path class="st1" d="M153.9,67.5h-58c-3.3,0-6-2.7-6-6V49.8c0-3.3,2.7-6,6-6h58c3.3,0,6,2.7,6,6v11.7
		C159.9,64.8,157.2,67.5,153.9,67.5z M95.9,45.8c-2.2,0-4,1.8-4,4v11.7c0,2.2,1.8,4,4,4h58c2.2,0,4-1.8,4-4V49.8c0-2.2-1.8-4-4-4
		H95.9z"/>
</g>
<g>
	<path class="st1" d="M141,56.7h-32.3c-0.6,0-1-0.4-1-1s0.4-1,1-1H141c0.6,0,1,0.4,1,1S141.6,56.7,141,56.7z"/>
</g>
<g>
	<path class="st1" d="M80,67.5H10V43.8h70V67.5z M12,65.5h66V45.8H12V65.5z"/>
</g>
<g>
	<rect x="28.9" y="56.7" class="st1" width="32.3" height="2"/>
</g>
<g>
	<rect x="35.4" y="52.7" class="st1" width="19.1" height="2"/>
</g>
</svg>
