<?xml version="1.0" encoding="utf-8"?>
<!-- Generator: Adobe Illustrator 22.1.0, SVG Export Plug-In . SVG Version: 6.00 Build 0)  -->
<svg version="1.1" id="Layer_1" xmlns="http://www.w3.org/2000/svg" xmlns:xlink="http://www.w3.org/1999/xlink" x="0px" y="0px"
	 viewBox="0 0 978.1 714" style="enable-background:new 0 0 978.1 714;" xml:space="preserve">
<style type="text/css">
	.st0{opacity:0.5;}
	.st1{fill:#FFFFFF;}
</style>
<g class="st0">
	<path class="st1" d="M476.1,713.2c-46-2.1-90.2-12.2-132.2-31.2c-14.3-6.4-28-13.8-41.4-22c-2.6-1.6-2.6-2.4-0.5-4.6
		c20.1-20,40.1-40,60.1-60.1c1.9-1.9,3.1-1.9,5.4-0.7c43.2,22.7,89.4,31.8,137.9,29.2c113.1-6.1,212.5-87.2,241.7-196.9
		c5.7-21.3,8.8-43,9.2-65.1c0.1-3.8-0.8-4.9-4.8-4.9c-41.7,0.2-83.3,0.1-125,0.1c-0.9,0-1.9,0-2.8,0c-0.3-0.4-0.5-0.8-0.8-1.2
		c1.3-1,2.7-1.8,3.8-2.9c56.8-56.8,113.6-113.6,170.4-170.5c3-3,4.4-3.3,7.6-0.1C861.3,239.3,918.2,296,975,352.8
		c1.2,1.2,3.2,2,3.1,4.2c-2.3,2-5.1,1.3-7.6,1.3c-38.8,0-77.6,0-116.4,0c-7.5,0-7.5,0-7.6,7.4c-0.4,47-10.9,91.7-29.5,134.7
		c-15,34.5-35,65.9-60.1,93.9c-33.8,37.9-73.7,67.6-120.1,88.5c-27.5,12.4-56,21.2-85.7,26.5c-16.9,3-34,4.2-51.2,4.1
		c-1.9,0-3.9,0-5.8,0c-3.3,0.3-6.7-0.6-10,0.5c-0.7,0-1.3,0-2,0C480.2,712.8,478,714.1,476.1,713.2z"/>
	<path class="st1" d="M502.1,0c0.9,1.9,2.6,0.9,4,1c61,3.2,117.5,20.8,169.6,52.8c3.1,1.9,2.5,2.8,0.4,4.9
		c-20,19.8-39.9,39.7-59.7,59.8c-2.2,2.2-3.6,1.8-5.9,0.6c-155.3-80.1-345.4,10-382.5,181.2c-3.6,16.8-5.6,33.8-6,51
		c-0.1,4.3,0.6,5.8,5.4,5.8c42.3-0.2,84.6-0.1,127-0.1c0.5,1.8-1.1,2.3-1.9,3.1c-57.3,57.4-114.7,114.8-172,172.2
		c-2.5,2.5-3.7,2.3-6.1-0.1C116.9,474.8,59.5,417.4,2.2,360c-0.9-0.9-2.4-1.4-2.2-3c2.3-2,5.1-1.3,7.7-1.3c38.6,0,77.3,0,115.9,0
		c8.1,0,8,0,8.1-8.3c0.7-46.6,10.9-91.1,29.5-133.7c13.4-30.7,30.8-59,52.3-84.8c28.5-34.3,62.2-62.4,101.1-84.2
		C354.8,22.1,397.8,8.1,443.4,2c8.6-1.1,17.2-1,25.9-1.5c1.6-0.1,3.3,0.5,4.9-0.5c0.7,0,1.3,0,2,0c3.2,1.1,6.6,0.2,9.9,0.5
		c1.7,0,3.3,0,5,0c2.7-0.3,5.5,0.6,8.1-0.5C500.1,0,501.1,0,502.1,0z"/>
	<path class="st1" d="M486.1,0.8c-3.3-0.4-6.8,1.5-10-0.8c3.3,0,6.7,0,10,0c0.3,0.2,0.4,0.4,0.3,0.6C486.3,0.7,486.2,0.8,486.1,0.8z
		"/>
	<path class="st1" d="M484.1,714c3.2-2.2,6.7-0.6,10-0.8c0.3,0.2,0.4,0.4,0.3,0.6c-0.1,0.2-0.2,0.3-0.3,0.3
		C490.7,714,487.4,714,484.1,714z"/>
	<path class="st1" d="M499.1,0c-2.5,2.2-5.3,0.5-8,0.8c-0.3-0.2-0.5-0.4-0.4-0.5c0.1-0.2,0.2-0.3,0.3-0.3C493.7,0,496.4,0,499.1,0z"
		/>
	<path class="st1" d="M476.1,713.2c2,0.2,4.3-1.2,6,0.8c-2,0-4,0-6,0C476.1,713.7,476.1,713.4,476.1,713.2z"/>
	<path class="st1" d="M494.1,714c0-0.3,0-0.5,0-0.8c2,0,4,0,6,0c0,0.3,0,0.6,0,0.8C498.1,714,496.1,714,494.1,714z"/>
	<path class="st1" d="M491.1,0c0,0.3,0,0.6,0,0.8c-1.7,0-3.4,0-5.1,0c0-0.3,0-0.6,0-0.8C487.7,0,489.4,0,491.1,0z"/>
</g>
</svg>
