<?xml version="1.0" encoding="utf-8"?>
<!-- Generator: Adobe Illustrator 22.1.0, SVG Export Plug-In . SVG Version: 6.00 Build 0)  -->
<svg version="1.1" id="Layer_1" xmlns="http://www.w3.org/2000/svg" xmlns:xlink="http://www.w3.org/1999/xlink" x="0px" y="0px"
	 viewBox="0 0 422 408.2" style="enable-background:new 0 0 422 408.2;" xml:space="preserve">
<style type="text/css">
	.st0{display:none;}
	.st1{display:inline;fill:#606F7B;}
	.st2{fill:#606F7B;}
</style>
<g class="st0">
	<path class="st1" d="M250,300.9c9.1-1.3,17.7-2.5,26-4.7c7.3-1.9,14.4-4.2,21.1-7.4c28.1-13.2,42.2-36.5,46.8-66.3
		c2-13.2,2.9-26.5,0.5-39.8c-2.5-14.3-8.5-26.9-17.8-37.9c-1.6-1.9-2.4-3.4-1.5-6.1c5.3-16.5,3.7-32.8-1.9-49
		c-0.9-2.7-2.3-3.6-5.1-3.6c-10.2,0.2-19.6,3.5-28.7,7.6c-7.9,3.6-15.4,7.9-22.6,12.7c-1.8,1.2-3.3,1.5-5.5,0.9
		c-33.1-8.3-66.2-8.4-99.3,0c-2.6,0.7-4.4,0-6.4-1.3c-13.8-8.8-28-16.7-44.5-19.4c-0.7-0.1-1.3-0.2-2-0.3c-7.7-0.9-8.1-0.6-10.5,6.9
		c-4.8,15.3-5.6,30.7-0.6,46.1c0.6,1.8,0.3,2.9-0.8,4.4c-24.8,32.5-26.9,81.6-4.8,116.2c12.6,19.8,31.7,30.3,53.8,36.1
		c8.5,2.2,17.2,3.6,26.7,4.8c-7.4,7.7-11.2,16.5-12.8,26.2c-0.3,1.9-1.6,2.4-2.9,2.9c-22.7,8.7-44.6,5.1-58.5-18
		c-6.6-11-15.8-18.8-28.7-21.5c-3.5-0.7-6.9-0.7-10.3,0.5c-3.2,1.2-3.7,3.3-1.6,5.7c1.6,1.9,3.5,3.7,5.5,5
		c11.2,6.7,18.5,16.8,23.2,28.5c8,19.7,23.4,28.1,43.4,29.8c8.3,0.7,16.7,0.3,24.8-1.6c3.7-0.9,4,0.5,4,3.6
		c-0.1,10.8,0.1,21.7,0.2,32.5c0.1,10.2-6.3,14.9-16,11.6c-32.1-10.9-60.1-28.4-83.5-52.9C18,309.6-2,257.2,1.4,197
		C6.9,102.3,73.9,25.2,166.8,4.9c102.3-22.4,206.3,34.3,242.4,132.1c40.4,109.6-18,231.8-128.7,269.1c-10.5,3.5-16.7-0.8-16.7-11.7
		c0-17,0-34,0.2-51C264.1,327.8,261.8,313.1,250,300.9z"/>
	<path class="st1" d="M154,335.6c1.8,0.2,4,0.5,3.9,2.9c-0.2,2.8-2.7,3.5-5.1,3.5c-1.9,0-3.9-0.7-3.6-3.1
		C149.4,336.3,151.7,335.9,154,335.6z"/>
	<path class="st1" d="M109.6,330.8c-0.1,1.8-1.1,2.8-2.9,2.6c-2.8-0.3-4.5-1.8-4.9-4.6c-0.3-1.8,0.6-2.9,2.4-2.8
		C107.4,326.1,108.9,328,109.6,330.8z"/>
	<path class="st1" d="M137.4,337.7c2.1,0.2,4.4,0.5,4.4,3c-0.1,2.7-2.5,3.3-4.7,3.2c-2-0.1-4.2-0.7-4.1-3.3
		C133.1,338,135.5,338,137.4,337.7z"/>
	<path class="st1" d="M120.7,341.3c-2.1-0.2-4.4-0.8-4.7-3.6c-0.2-2.2,1.5-2.7,3.3-2.7c2.7,0,5.1,0.9,5.3,3.9
		C124.8,340.9,122.8,341.3,120.7,341.3z"/>
	<path class="st1" d="M95.6,321.3c-2.2-0.4-3.5-2.1-3.7-4.7c-0.1-1.5,0.7-2.7,2.3-2.5c2.8,0.3,3.9,2.3,4.2,4.7
		C98.7,320.3,97.9,321.4,95.6,321.3z"/>
	<path class="st1" d="M85.9,303.3c2.1,0.5,3.6,1.7,4,3.9c0.3,1.7-0.8,2.6-2.3,2.4c-2.2-0.3-3.6-1.7-3.7-4
		C83.8,304.3,84.4,303.4,85.9,303.3z"/>
	<path class="st1" d="M78.8,300.8c-1.7-0.3-3.4-0.7-3.6-2.8c-0.2-1.5,1.1-1.9,2.3-1.9c1.6,0.1,3,0.9,3.4,2.5
		C81.3,300.1,80,300.5,78.8,300.8z"/>
</g>
<g>
	<path class="st2" d="M8,344.6c13.7,0.5,27.4,0.4,40.9-1.8c16.4-2.7,32.2-7.6,47.3-14.8c10-4.8,19.5-10.5,28.4-17.1
		c1-0.8,2.4-1.2,2.8-3c-8.4,0.1-16.3-1.6-24.1-4.1c-14.6-4.7-27-12.8-37.3-24.2c-7.6-8.4-13.3-17.9-17.3-28.5c-0.9-2.4-0.4-3,2-2.6
		c10.2,1.8,20.3,1.1,30.4-0.7c1.3-0.2,2.6-0.6,4-1.3c-4.1-1.4-8.2-2.4-12.1-4c-29.7-12.1-47.6-34-54.2-65.2
		c-0.9-4.4-0.8-8.9-1.3-13.4c-0.2-2.3,0-3.1,2.6-1.8c10.5,5.2,21.6,8.6,33.5,9.1c0.6,0,1.1,0,2.6,0c-18.6-13.4-30.8-30.6-35.7-52.4
		c-4.9-21.9-1.7-42.6,9.3-62.5c4.9,5.4,9.4,10.7,14.3,15.8c8.4,8.6,17.3,16.6,26.8,23.9c18,13.9,37.6,25,58.7,33.4
		c24.2,9.6,49.4,15.2,75.4,16.9c2.2,0.1,3-0.1,2.5-2.6c-4.4-24.3-0.1-46.8,14.4-67.1c11.7-16.4,27.3-27.6,46.8-32.9
		c23.4-6.4,45.7-3.6,66.8,8.4c6.2,3.5,12,7.8,17,13.1c1.7,1.8,3.2,2.4,5.9,1.8c17.2-3.8,33.4-10.1,48.7-18.6
		c0.7-0.4,1.3-0.9,2.5-0.7c-6.6,19.4-18.5,34.5-35.6,45.5c0.2,1.1,0.3,1.1,2,0.7c15.4-2,30.2-6.4,44.6-12.2
		c-6.4,10-13.8,18.9-22.2,27.1c-5.5,5.4-11.4,10.3-17.5,15c-1.8,1.4-2.5,2.8-2.4,5.1c1,25.1-2.2,49.7-9,73.8
		c-5.7,20.3-13.9,39.7-24.4,58.1c-11.6,20.4-25.7,38.8-42.4,55.2c-21.7,21.2-46.7,37.6-74.8,49c-24.3,9.8-49.6,15.4-75.7,17.1
		c-23.7,1.6-47.3,0.4-70.6-4.6c-24.1-5.2-47-13.8-68.6-25.8c-3.4-1.9-6.7-4.1-10-6.1C4.6,343.6,6.3,344.4,8,344.6z"/>
	<path class="st2" d="M8,344.6c-1.5,0.7-3.3-0.5-4.8,0.6c-0.6-0.2-1.1-0.5-1.7-0.7C3.7,344,5.9,343.8,8,344.6z"/>
	<path class="st2" d="M376.1,93.7c-0.9,0.7-2,1.2-3,0.3c-0.3-0.3,0.3-0.9,1-1C374.5,94,375.5,93.3,376.1,93.7z"/>
</g>
</svg>
